<svg width="180" height="180" viewBox="0 0 180 180" fill="none" xmlns="http://www.w3.org/2000/svg">
  <!-- Белый фон -->
  <rect width="180" height="180" fill="#FFFFFF"/>
  
  <!-- Логотип ChefUp -->
  <g transform="translate(30, 50) scale(0.15)">
    <!-- Часть "chef" -->
    <path 
      d="M79.8 259.92C58.3333 259.92 40.5067 252.92 26.32 238.92C12.1333 224.733 5.04 207.093 5.04 186C5.04 164.907 12.1333 147.36 26.32 133.36C40.5067 119.173 58.3333 112.08 79.8 112.08C93.6133 112.08 106.213 115.44 117.6 122.16C129.173 128.693 138.04 137.56 144.2 148.76L100.52 173.68C95.8533 165.84 88.9467 161.92 79.8 161.92C73.2667 161.92 67.76 164.253 63.28 168.92C58.9867 173.4 56.84 179.093 56.84 186C56.84 192.907 58.9867 198.693 63.28 203.36C67.76 207.84 73.2667 210.08 79.8 210.08C89.5067 210.08 96.4133 206.067 100.52 198.04L144.2 223.24C138.04 234.627 129.173 243.587 117.6 250.12C106.213 256.653 93.6133 259.92 79.8 259.92ZM223.862 112.08C239.542 112.08 251.862 117.493 260.822 128.32C269.969 139.147 274.542 154.733 274.542 175.08V256H222.742V180.68C222.742 168.173 216.956 161.92 205.382 161.92C199.222 161.92 194.462 163.88 191.102 167.8C187.929 171.72 186.342 177.133 186.342 184.04V256H134.542V60H186.342V129.72C195.116 117.96 207.622 112.08 223.862 112.08ZM411.81 203.64H318.85C323.33 212.973 332.85 217.64 347.41 217.64C355.81 217.64 363.743 214.653 371.21 208.68L405.09 237.24C391.09 252.36 371.303 259.92 345.73 259.92C322.023 259.92 302.797 253.013 288.05 239.2C273.677 225.2 266.49 207.653 266.49 186.56C266.49 165.28 273.49 147.547 287.49 133.36C301.677 119.173 319.503 112.08 340.97 112.08C362.25 112.08 379.703 119.08 393.33 133.08C407.143 146.893 414.05 164.347 414.05 185.44C414.05 191.227 413.303 197.293 411.81 203.64ZM318.01 170.32H365.05C362.063 159.12 354.503 153.52 342.37 153.52C330.237 153.52 322.117 159.12 318.01 170.32ZM492.428 55.52V102C485.895 101.44 480.668 102.467 476.748 105.08C472.828 107.693 470.868 111.333 470.868 116H492.428V165.28H470.868V256H419.068V165.28H402.828V116H419.068C419.068 95.6533 425.321 80.16 437.828 69.52C450.521 58.88 468.721 54.2133 492.428 55.52Z" 
      fill="#171616"
    />
    <!-- Часть "Up" -->
    <path 
      d="M584.85 187.96V116H636.65V256H584.85V242.28C576.263 254.04 563.757 259.92 547.33 259.92C531.65 259.92 519.237 254.507 510.09 243.68C501.13 232.853 496.65 217.267 496.65 196.92V116H548.45V191.32C548.45 203.827 554.237 210.08 565.81 210.08C571.97 210.08 576.637 208.12 579.81 204.2C583.17 200.28 584.85 194.867 584.85 187.96ZM731.625 112.08C750.478 112.08 765.878 119.08 777.825 133.08C789.771 146.893 795.745 164.533 795.745 186C795.745 207.467 789.771 225.107 777.825 238.92C765.878 252.92 750.478 259.92 731.625 259.92C715.571 259.92 703.065 254.413 694.105 243.4V312H642.305V116H694.105V128.6C703.065 117.587 715.571 112.08 731.625 112.08ZM700.825 204.76C705.491 209.8 711.558 212.32 719.025 212.32C726.491 212.32 732.465 209.8 736.945 204.76C741.611 199.72 743.945 193.467 743.945 186C743.945 178.533 741.611 172.28 736.945 167.24C732.465 162.2 726.491 159.68 719.025 159.68C711.558 159.68 705.491 162.2 700.825 167.24C696.345 172.28 694.105 178.533 694.105 186C694.105 193.467 696.345 199.72 700.825 204.76Z" 
      fill="#FF4617"
    />
  </g>
</svg>

